<svg width="20" height="20" viewBox="0 0 20 20" fill="none" xmlns="http://www.w3.org/2000/svg">
<path fill-rule="evenodd" clip-rule="evenodd" d="M10.67 0.717043L19.17 5.46704C19.4195 5.59161 19.6294 5.78328 19.776 6.02051C19.9226 6.25775 20.0002 6.53116 20 6.81004V8.25004C20 8.94004 19.44 9.50004 18.75 9.50004H18V17.5H19C19.2652 17.5 19.5196 17.6054 19.7071 17.7929C19.8946 17.9805 20 18.2348 20 18.5C20 18.7653 19.8946 19.0196 19.7071 19.2071C19.5196 19.3947 19.2652 19.5 19 19.5H1C0.734784 19.5 0.48043 19.3947 0.292893 19.2071C0.105357 19.0196 0 18.7653 0 18.5C0 18.2348 0.105357 17.9805 0.292893 17.7929C0.48043 17.6054 0.734784 17.5 1 17.5H2V9.50004H1.25C0.56 9.50004 0 8.94004 0 8.25004V6.81004C0 6.28804 0.27 5.80804 0.706 5.53604L9.329 0.717043C9.53733 0.612843 9.76706 0.558594 10 0.558594C10.2329 0.558594 10.4617 0.612843 10.67 0.717043ZM15 9.50004H5V17.5H7V11.5H9V17.5H11V11.5H13V17.5H15V9.50004ZM10 4.50004C9.73478 4.50004 9.48043 4.6054 9.29289 4.79294C9.10536 4.98047 9 5.23483 9 5.50004C9 5.76526 9.10536 6.01961 9.29289 6.20715C9.48043 6.39469 9.73478 6.50004 10 6.50004C10.2652 6.50004 10.5196 6.39469 10.7071 6.20715C10.8946 6.01961 11 5.76526 11 5.50004C11 5.23483 10.8946 4.98047 10.7071 4.79294C10.5196 4.6054 10.2652 4.50004 10 4.50004Z" fill="#707070"/>
</svg>
