<svg width="25" height="19" viewBox="0 0 25 19" fill="none" xmlns="http://www.w3.org/2000/svg">
<mask id="mask0_4126_3215" style="mask-type:luminance" maskUnits="userSpaceOnUse" x="0" y="0" width="25" height="19">
<path d="M9.712 2.769C9.89708 2.59623 10.1408 2.5001 10.394 2.5H21.5C21.7652 2.5 22.0196 2.60536 22.2071 2.79289C22.3946 2.98043 22.5 3.23478 22.5 3.5V15.5C22.5 15.7652 22.3946 16.0196 22.2071 16.2071C22.0196 16.3946 21.7652 16.5 21.5 16.5H10.394C10.1408 16.4999 9.89708 16.4038 9.712 16.231L2.5 9.5L9.712 2.769Z" fill="white" stroke="white" stroke-width="4" stroke-linecap="round" stroke-linejoin="round"/>
<path d="M18.5 7L13.5 12M13.5 7L18.5 12" stroke="black" stroke-width="4" stroke-linecap="round" stroke-linejoin="round"/>
</mask>
<g mask="url(#mask0_4126_3215)">
<path d="M0.5 -2.5H24.5V21.5H0.5V-2.5Z" fill="#7F7F7F"/>
</g>
</svg>
