<svg width="18" height="17" viewBox="0 0 18 17" fill="none" xmlns="http://www.w3.org/2000/svg">
<path d="M9 4.25C9.49728 4.25 9.97419 4.44754 10.3258 4.79917C10.6775 5.15081 10.875 5.62772 10.875 6.125C10.875 6.62228 10.6775 7.09919 10.3258 7.45082C9.97419 7.80246 9.49728 8 9 8C8.50272 8 8.02581 7.80246 7.67418 7.45082C7.32254 7.09919 7.125 6.62228 7.125 6.125C7.125 5.62772 7.32254 5.15081 7.67418 4.79917C8.02581 4.44754 8.50272 4.25 9 4.25Z" fill="#ECC722"/>
<path fill-rule="evenodd" clip-rule="evenodd" d="M17.75 2.0625C17.75 1.19917 17.05 0.5 16.1875 0.5H1.8125C0.95 0.5 0.25 1.2 0.25 2.0625V10.1875C0.25 11.0508 0.95 11.75 1.8125 11.75H16.1875C16.3927 11.75 16.5959 11.7096 16.7854 11.6311C16.975 11.5525 17.1473 11.4374 17.2924 11.2924C17.4374 11.1473 17.5525 10.975 17.6311 10.7854C17.7096 10.5959 17.75 10.3927 17.75 10.1875V2.0625ZM12.125 6.125C12.125 5.2962 11.7958 4.50134 11.2097 3.91529C10.6237 3.32924 9.8288 3 9 3C8.1712 3 7.37634 3.32924 6.79029 3.91529C6.20424 4.50134 5.875 5.2962 5.875 6.125C5.875 6.9538 6.20424 7.74866 6.79029 8.33471C7.37634 8.92076 8.1712 9.25 9 9.25C9.8288 9.25 10.6237 8.92076 11.2097 8.33471C11.7958 7.74866 12.125 6.9538 12.125 6.125ZM3.375 5.5C3.54076 5.5 3.69973 5.56585 3.81694 5.68306C3.93415 5.80027 4 5.95924 4 6.125V6.13167C4 6.47667 3.72 6.75667 3.375 6.75667H3.36833C3.20257 6.75667 3.0436 6.69082 2.92639 6.57361C2.80918 6.4564 2.74333 6.29743 2.74333 6.13167V6.125C2.74333 5.95924 2.80918 5.80027 2.92639 5.68306C3.0436 5.56585 3.20257 5.5 3.36833 5.5H3.375ZM15.25 6.125C15.25 5.95924 15.1842 5.80027 15.0669 5.68306C14.9497 5.56585 14.7908 5.5 14.625 5.5H14.6183C14.4526 5.5 14.2936 5.56585 14.1764 5.68306C14.0592 5.80027 13.9933 5.95924 13.9933 6.125V6.13167C13.9933 6.29743 14.0592 6.4564 14.1764 6.57361C14.2936 6.69082 14.4526 6.75667 14.6183 6.75667H14.625C14.7908 6.75667 14.9497 6.69082 15.0669 6.57361C15.1842 6.4564 15.25 6.29743 15.25 6.13167V6.125Z" fill="#ECC722"/>
<path d="M17.125 13C17.2908 13 17.4497 13.0658 17.5669 13.1831C17.6842 13.3003 17.75 13.4592 17.75 13.625C17.75 13.7908 17.6842 13.9497 17.5669 14.0669C17.4497 14.1842 17.2908 14.25 17.125 14.25C12.625 14.25 8.26667 14.8517 4.125 15.9792C3.13333 16.2492 2.125 15.5142 2.125 14.4625V13.625C2.125 13.4592 2.19085 13.3003 2.30806 13.1831C2.42527 13.0658 2.58424 13 2.75 13H17.125Z" fill="#ECC722"/>
</svg>
