<svg width="22" height="17" viewBox="0 0 22 17" fill="none" xmlns="http://www.w3.org/2000/svg">
<path d="M0.5 14.125C0.5 14.8212 0.776562 15.4889 1.26884 15.9812C1.76113 16.4734 2.42881 16.75 3.125 16.75H18.875C19.5712 16.75 20.2389 16.4734 20.7312 15.9812C21.2234 15.4889 21.5 14.8212 21.5 14.125V6.90625H0.5V14.125ZM3.59375 10.5625C3.59375 10.1895 3.74191 9.83185 4.00563 9.56813C4.26935 9.30441 4.62704 9.15625 5 9.15625H7.25C7.62296 9.15625 7.98065 9.30441 8.24437 9.56813C8.50809 9.83185 8.65625 10.1895 8.65625 10.5625V11.5C8.65625 11.873 8.50809 12.2306 8.24437 12.4944C7.98065 12.7581 7.62296 12.9062 7.25 12.9062H5C4.62704 12.9062 4.26935 12.7581 4.00563 12.4944C3.74191 12.2306 3.59375 11.873 3.59375 11.5V10.5625ZM18.875 0.25H3.125C2.42881 0.25 1.76113 0.526562 1.26884 1.01884C0.776562 1.51113 0.5 2.17881 0.5 2.875V4.09375H21.5V2.875C21.5 2.17881 21.2234 1.51113 20.7312 1.01884C20.2389 0.526562 19.5712 0.25 18.875 0.25Z" fill="#707070"/>
</svg>
