<svg width="14" height="13" viewBox="0 0 14 13" fill="none" xmlns="http://www.w3.org/2000/svg">
<path d="M2.91999 0.330014C2.70672 0.131294 2.42465 0.0231091 2.1332 0.0282514C1.84175 0.0333938 1.56367 0.151461 1.35755 0.357581C1.15143 0.5637 1.03337 0.841778 1.02822 1.13323C1.02308 1.42468 1.13127 1.70675 1.32999 1.92001L5.40999 6.00001L1.32999 10.08C1.21946 10.183 1.1308 10.3072 1.06931 10.4452C1.00783 10.5832 0.974764 10.7322 0.972099 10.8832C0.969434 11.0343 0.997221 11.1843 1.0538 11.3244C1.11038 11.4645 1.1946 11.5917 1.30143 11.6986C1.40826 11.8054 1.53551 11.8896 1.67559 11.9462C1.81567 12.0028 1.96572 12.0306 2.11677 12.0279C2.26782 12.0252 2.41679 11.9922 2.55479 11.9307C2.69279 11.8692 2.81699 11.7805 2.91999 11.67L6.99999 7.59001L11.08 11.67C11.183 11.7805 11.3072 11.8692 11.4452 11.9307C11.5832 11.9922 11.7321 12.0252 11.8832 12.0279C12.0343 12.0306 12.1843 12.0028 12.3244 11.9462C12.4645 11.8896 12.5917 11.8054 12.6985 11.6986C12.8054 11.5917 12.8896 11.4645 12.9462 11.3244C13.0028 11.1843 13.0305 11.0343 13.0279 10.8832C13.0252 10.7322 12.9921 10.5832 12.9307 10.4452C12.8692 10.3072 12.7805 10.183 12.67 10.08L8.58999 6.00001L12.67 1.92001C12.8687 1.70675 12.9769 1.42468 12.9717 1.13323C12.9666 0.841778 12.8485 0.5637 12.6424 0.357581C12.4363 0.151461 12.1582 0.0333938 11.8668 0.0282514C11.5753 0.0231091 11.2932 0.131294 11.08 0.330014L6.99999 4.41001L2.91999 0.330014Z" fill="black"/>
</svg>
