<svg width="22" height="14" viewBox="0 0 22 14" fill="none" xmlns="http://www.w3.org/2000/svg">
<path fill-rule="evenodd" clip-rule="evenodd" d="M0.464014 0.266382C0.632764 0.0978417 0.861513 0.00317383 1.10001 0.00317383C1.33851 0.00317383 1.56726 0.0978417 1.73601 0.266382L7.40001 5.93038L11.9216 1.40758C12.0108 1.31841 12.1177 1.24897 12.2354 1.20376C12.3531 1.15855 12.479 1.13858 12.6049 1.14514C12.7308 1.1517 12.854 1.18465 12.9663 1.24185C13.0787 1.29905 13.1778 1.37923 13.2572 1.47718C15.3417 4.04854 16.8968 7.00696 17.8328 10.182L19.7216 6.90958C19.841 6.70271 20.0376 6.55173 20.2683 6.48984C20.4989 6.42795 20.7447 6.46023 20.9516 6.57958C21.1585 6.69893 21.3095 6.89557 21.3714 7.12624C21.4332 7.35691 21.401 7.60271 21.2816 7.80958L18.3116 12.9528C18.2526 13.0553 18.1739 13.1451 18.0801 13.2172C17.9863 13.2892 17.8792 13.3421 17.765 13.3727C17.6508 13.4034 17.5316 13.4112 17.4144 13.3958C17.2971 13.3803 17.184 13.3419 17.0816 13.2828L11.9384 10.3128C11.7315 10.1934 11.5806 9.9968 11.5187 9.76613C11.4568 9.53546 11.4891 9.28965 11.6084 9.08278C11.7278 8.87591 11.9244 8.72493 12.1551 8.66304C12.3857 8.60115 12.6315 8.63343 12.8384 8.75278L16.088 10.6308C15.3134 8.02908 14.0902 5.5827 12.4736 3.40198L8.03601 7.83958C7.86726 8.00812 7.63851 8.10279 7.40001 8.10279C7.16151 8.10279 6.93276 8.00812 6.76401 7.83958L0.464014 1.53958C0.295473 1.37083 0.200806 1.14208 0.200806 0.903582C0.200806 0.665081 0.295473 0.435133 0.464014 0.266382Z" fill="black"/>
</svg>
