<svg width="17" height="18" viewBox="0 0 17 18" fill="none" xmlns="http://www.w3.org/2000/svg">
<path d="M15.707 12.2695L14.5117 11.5791C14.728 11.3563 14.9761 11.1667 15.2479 11.0166C15.4256 10.9164 15.5565 10.7501 15.6121 10.5538C15.6678 10.3576 15.6436 10.1473 15.545 9.96875C15.4463 9.79021 15.2811 9.65788 15.0854 9.60056C14.8896 9.54323 14.6791 9.56557 14.4998 9.6627C13.9808 9.94993 13.5209 10.3329 13.1445 10.7912L10.0469 9L13.1438 7.21195C13.5201 7.67041 13.98 8.05335 14.4991 8.34047C14.588 8.39062 14.686 8.42267 14.7874 8.43474C14.8888 8.44682 14.9916 8.43869 15.0899 8.41084C15.1881 8.38298 15.2799 8.33593 15.3599 8.27242C15.4399 8.20892 15.5065 8.1302 15.5559 8.04081C15.6053 7.95142 15.6365 7.85314 15.6477 7.75163C15.6589 7.65012 15.6499 7.5474 15.6212 7.44939C15.5925 7.35138 15.5446 7.26002 15.4805 7.18059C15.4163 7.10116 15.337 7.03523 15.2472 6.9866C14.9754 6.83635 14.7274 6.64681 14.511 6.4241L15.7063 5.73363C15.7977 5.68475 15.8784 5.61798 15.9435 5.5373C16.0086 5.45662 16.0569 5.36367 16.0853 5.26398C16.1138 5.16429 16.122 5.05989 16.1093 4.95699C16.0966 4.85409 16.0634 4.75479 16.0116 4.66499C15.9597 4.57519 15.8904 4.49673 15.8076 4.43426C15.7249 4.3718 15.6304 4.3266 15.5299 4.30137C15.4293 4.27614 15.3247 4.27139 15.2223 4.28739C15.1198 4.3034 15.0217 4.33983 14.9336 4.39453L13.7383 5.08465C13.6531 4.7858 13.6126 4.47601 13.618 4.16531C13.6203 4.06356 13.6024 3.96237 13.5655 3.86754C13.5285 3.77271 13.4732 3.6861 13.4027 3.61268C13.3323 3.53926 13.248 3.48047 13.1547 3.43969C13.0615 3.3989 12.9611 3.37692 12.8594 3.375H12.8449C12.6423 3.37496 12.4477 3.45447 12.3031 3.59642C12.1584 3.73836 12.0753 3.9314 12.0715 4.13402C12.0606 4.72672 12.162 5.31611 12.3703 5.87109L9.27342 7.6602V4.08445C9.85856 3.98775 10.4201 3.78101 10.9282 3.4752C11.1039 3.36932 11.2304 3.19798 11.2798 2.99887C11.3292 2.79976 11.2974 2.58919 11.1915 2.41348C11.0857 2.23777 10.9143 2.11131 10.7152 2.06193C10.5161 2.01255 10.3055 2.04428 10.1298 2.15016C9.86347 2.31025 9.57487 2.43002 9.27342 2.50559V1.33594C9.27342 1.13081 9.19194 0.934082 9.04689 0.789035C8.90184 0.643987 8.70511 0.5625 8.49999 0.5625C8.29486 0.5625 8.09813 0.643987 7.95308 0.789035C7.80803 0.934082 7.72655 1.13081 7.72655 1.33594V2.50559C7.4251 2.43002 7.13651 2.31025 6.87014 2.15016C6.69443 2.04428 6.48386 2.01255 6.28475 2.06193C6.08564 2.11131 5.9143 2.23777 5.80842 2.41348C5.70255 2.58919 5.67081 2.79976 5.72019 2.99887C5.76958 3.19798 5.89603 3.36932 6.07174 3.4752C6.5799 3.78101 7.14141 3.98775 7.72655 4.08445V7.6602L4.62963 5.87109C4.83829 5.31594 4.93992 4.72629 4.92916 4.13332C4.92539 3.9307 4.84224 3.73766 4.6976 3.59571C4.55296 3.45377 4.35838 3.37426 4.15573 3.3743H4.14061C4.03904 3.37617 3.93883 3.39804 3.8457 3.43865C3.75258 3.47926 3.66837 3.53782 3.59789 3.61099C3.5274 3.68415 3.47202 3.77048 3.43491 3.86505C3.3978 3.95962 3.37968 4.06057 3.38159 4.16215C3.38726 4.4733 3.34686 4.78357 3.2617 5.08289L2.06639 4.39453C1.97837 4.34203 1.88079 4.30754 1.77932 4.29307C1.67785 4.27861 1.57452 4.28445 1.47534 4.31027C1.37615 4.33609 1.28308 4.38137 1.20154 4.44347C1.12001 4.50557 1.05162 4.58325 1.00037 4.67201C0.94912 4.76077 0.916021 4.85883 0.902998 4.96049C0.889974 5.06215 0.897287 5.16539 0.92451 5.2642C0.951734 5.36301 0.998325 5.45543 1.06158 5.53608C1.12483 5.61673 1.20348 5.684 1.29295 5.73398L2.48827 6.42445C2.27189 6.64716 2.02383 6.8367 1.75209 6.98695C1.66229 7.03558 1.583 7.10151 1.51881 7.18094C1.45462 7.26037 1.4068 7.35173 1.3781 7.44974C1.3494 7.54775 1.3404 7.65047 1.35161 7.75198C1.36282 7.85349 1.39402 7.95177 1.44341 8.04116C1.4928 8.13055 1.55941 8.20927 1.63939 8.27278C1.71936 8.33629 1.81113 8.38333 1.90938 8.41119C2.00763 8.43905 2.11043 8.44717 2.21184 8.43509C2.31325 8.42302 2.41126 8.39098 2.50022 8.34082C3.01917 8.05358 3.47903 7.67066 3.85549 7.2123L6.95311 9L3.8562 10.788C3.47974 10.3297 3.01988 9.94677 2.50092 9.65953C2.41196 9.60938 2.31395 9.57733 2.21254 9.56526C2.11113 9.55318 2.00833 9.56131 1.91008 9.58916C1.81183 9.61702 1.72007 9.66407 1.64009 9.72758C1.56011 9.79108 1.49351 9.8698 1.44411 9.95919C1.39472 10.0486 1.36352 10.1469 1.35231 10.2484C1.3411 10.3499 1.3501 10.4526 1.3788 10.5506C1.4075 10.6486 1.45532 10.74 1.51952 10.8194C1.58371 10.8988 1.66299 10.9648 1.7528 11.0134C2.02453 11.1636 2.2726 11.3532 2.48897 11.5759L1.29295 12.2695C1.20348 12.3195 1.12483 12.3868 1.06158 12.4674C0.998325 12.5481 0.951734 12.6405 0.92451 12.7393C0.897287 12.8381 0.889974 12.9414 0.902998 13.043C0.916021 13.1447 0.94912 13.2427 1.00037 13.3315C1.05162 13.4203 1.12001 13.498 1.20154 13.5601C1.28308 13.6222 1.37615 13.6674 1.47534 13.6932C1.57452 13.7191 1.67785 13.7249 1.77932 13.7104C1.88079 13.696 1.97837 13.6615 2.06639 13.609L3.2617 12.9189C3.34684 13.2177 3.38735 13.5275 3.38194 13.8382C3.37836 14.0431 3.45625 14.241 3.59849 14.3886C3.74074 14.5361 3.93572 14.6211 4.14061 14.625H4.15502C4.35768 14.625 4.55225 14.5455 4.69689 14.4036C4.84153 14.2616 4.92469 14.0686 4.92846 13.866C4.93935 13.2733 4.83796 12.6839 4.62963 12.1289L7.72655 10.3398V13.9155C7.14141 14.0123 6.5799 14.219 6.07174 14.5248C5.89603 14.6307 5.76958 14.802 5.72019 15.0011C5.67081 15.2002 5.70255 15.4108 5.80842 15.5865C5.9143 15.7622 6.08564 15.8887 6.28475 15.9381C6.48386 15.9875 6.69443 15.9557 6.87014 15.8498C7.13651 15.6898 7.4251 15.57 7.72655 15.4944V16.6641C7.72655 16.8692 7.80803 17.0659 7.95308 17.211C8.09813 17.356 8.29486 17.4375 8.49999 17.4375C8.70511 17.4375 8.90184 17.356 9.04689 17.211C9.19194 17.0659 9.27342 16.8692 9.27342 16.6641V15.4944C9.57487 15.57 9.86347 15.6898 10.1298 15.8498C10.3055 15.9557 10.5161 15.9875 10.7152 15.9381C10.9143 15.8887 11.0857 15.7622 11.1915 15.5865C11.2974 15.4108 11.3292 15.2002 11.2798 15.0011C11.2304 14.802 11.1039 14.6307 10.9282 14.5248C10.4201 14.219 9.85856 14.0123 9.27342 13.9155V10.3398L12.3703 12.1289C12.1617 12.6841 12.0601 13.2737 12.0708 13.8667C12.0746 14.0693 12.1577 14.2623 12.3024 14.4043C12.447 14.5462 12.6416 14.6257 12.8442 14.6257H12.8594C12.9609 14.6238 13.0611 14.602 13.1543 14.5613C13.2474 14.5207 13.3316 14.4622 13.4021 14.389C13.4726 14.3159 13.5279 14.2295 13.5651 14.135C13.6022 14.0404 13.6203 13.9394 13.6184 13.8379C13.6127 13.5267 13.6531 13.2164 13.7383 12.9171L14.9336 13.6072C15.0216 13.6637 15.1202 13.7018 15.2233 13.7192C15.3265 13.7365 15.4321 13.7327 15.5337 13.7081C15.6354 13.6834 15.731 13.6384 15.8148 13.5757C15.8985 13.5131 15.9687 13.4341 16.0211 13.3435C16.0734 13.253 16.1069 13.1528 16.1194 13.0489C16.1319 12.9451 16.1232 12.8397 16.0938 12.7393C16.0645 12.6389 16.0151 12.5455 15.9486 12.4648C15.8821 12.384 15.7999 12.3176 15.707 12.2695Z" fill="black"/>
</svg>
