<svg width="20" height="21" viewBox="0 0 20 21" fill="none" xmlns="http://www.w3.org/2000/svg">
<path d="M7.14373 19.2821V16.2152C7.14372 15.4381 7.77567 14.8067 8.55844 14.8018H11.4326C12.2189 14.8018 12.8563 15.4346 12.8563 16.2152V19.2732C12.8562 19.9473 13.404 20.4951 14.0829 20.5H16.0438C16.9596 20.5023 17.8388 20.1428 18.4872 19.5007C19.1356 18.8586 19.5 17.9868 19.5 17.0775V8.36585C19.5 7.63139 19.1721 6.93471 18.6046 6.4635L11.943 1.17427C10.7785 0.249123 9.11537 0.279008 7.98539 1.24538L1.46701 6.4635C0.872741 6.92082 0.517552 7.61956 0.5 8.36585V17.0686C0.5 18.9637 2.04738 20.5 3.95617 20.5H5.87229C6.19917 20.5023 6.51349 20.3751 6.74547 20.1464C6.97746 19.9178 7.10793 19.6067 7.10792 19.2821H7.14373Z" fill="#707070"/>
</svg>
