<svg width="19" height="18" viewBox="0 0 19 18" fill="none" xmlns="http://www.w3.org/2000/svg">
<path d="M9.5 15C9.91421 15 10.25 14.6642 10.25 14.25C10.25 13.8358 9.91421 13.5 9.5 13.5C9.08579 13.5 8.75 13.8358 8.75 14.25C8.75 14.6642 9.08579 15 9.5 15Z" stroke="black" stroke-width="2" stroke-linecap="round" stroke-linejoin="round"/>
<path d="M9.5 9.75C9.91421 9.75 10.25 9.41421 10.25 9C10.25 8.58579 9.91421 8.25 9.5 8.25C9.08579 8.25 8.75 8.58579 8.75 9C8.75 9.41421 9.08579 9.75 9.5 9.75Z" stroke="black" stroke-width="2" stroke-linecap="round" stroke-linejoin="round"/>
<path d="M9.5 4.5C9.91421 4.5 10.25 4.16421 10.25 3.75C10.25 3.33579 9.91421 3 9.5 3C9.08579 3 8.75 3.33579 8.75 3.75C8.75 4.16421 9.08579 4.5 9.5 4.5Z" stroke="black" stroke-width="2" stroke-linecap="round" stroke-linejoin="round"/>
</svg>
