<svg width="19" height="21" viewBox="0 0 19 21" fill="none" xmlns="http://www.w3.org/2000/svg">
<path d="M13.755 12C14.535 12 15.222 12.397 15.625 13H9.50003C8.83699 13 8.2011 13.2634 7.73226 13.7322C7.26342 14.2011 7.00003 14.837 7.00003 15.5V19.5C7.00003 19.661 7.01503 19.82 7.04503 19.972C4.10603 19.786 1.90903 18.722 0.515028 16.765C0.182799 16.2991 0.00416931 15.7412 0.00402832 15.169V14.249C0.00402832 13.6525 0.240976 13.0805 0.662745 12.6587C1.08451 12.237 1.65656 12 2.25303 12H13.755ZM8.00003 0.00500488C8.65664 0.00500487 9.30682 0.134333 9.91344 0.385607C10.5201 0.636881 11.0713 1.00518 11.5356 1.46947C11.9999 1.93376 12.3682 2.48496 12.6194 3.09159C12.8707 3.69822 13 4.3484 13 5.005C13 5.66161 12.8707 6.31179 12.6194 6.91842C12.3682 7.52505 11.9999 8.07625 11.5356 8.54054C11.0713 9.00483 10.5201 9.37313 9.91344 9.6244C9.30682 9.87568 8.65664 10.005 8.00003 10.005C6.67395 10.005 5.40218 9.47822 4.46449 8.54054C3.52681 7.60286 3.00003 6.33109 3.00003 5.005C3.00003 3.67892 3.52681 2.40715 4.46449 1.46947C5.40218 0.531789 6.67395 0.00500488 8.00003 0.00500488ZM8.00003 15.5C8.00003 15.1022 8.15806 14.7206 8.43937 14.4393C8.72067 14.158 9.1022 14 9.50003 14H17.5C17.8979 14 18.2794 14.158 18.5607 14.4393C18.842 14.7206 19 15.1022 19 15.5V19.5C19 19.8978 18.842 20.2794 18.5607 20.5607C18.2794 20.842 17.8979 21 17.5 21H9.50003C9.1022 21 8.72067 20.842 8.43937 20.5607C8.15806 20.2794 8.00003 19.8978 8.00003 19.5V15.5ZM18 16C17.7348 16 17.4805 15.8946 17.2929 15.7071C17.1054 15.5196 17 15.2652 17 15H16C16 15.5304 16.2107 16.0391 16.5858 16.4142C16.9609 16.7893 17.4696 17 18 17V16ZM18 18C17.4696 18 16.9609 18.2107 16.5858 18.5858C16.2107 18.9609 16 19.4696 16 20H17C17 19.7348 17.1054 19.4804 17.2929 19.2929C17.4805 19.1054 17.7348 19 18 19V18ZM10 15C10 15.2652 9.89467 15.5196 9.70713 15.7071C9.5196 15.8946 9.26525 16 9.00003 16V17C9.53046 17 10.0392 16.7893 10.4142 16.4142C10.7893 16.0391 11 15.5304 11 15H10ZM11 20C11 19.4696 10.7893 18.9609 10.4142 18.5858C10.0392 18.2107 9.53046 18 9.00003 18V19C9.26525 19 9.5196 19.1054 9.70713 19.2929C9.89467 19.4804 10 19.7348 10 20H11ZM15.25 17.5C15.25 17.0359 15.0657 16.5908 14.7375 16.2626C14.4093 15.9344 13.9642 15.75 13.5 15.75C13.0359 15.75 12.5908 15.9344 12.2626 16.2626C11.9344 16.5908 11.75 17.0359 11.75 17.5C11.75 17.9641 11.9344 18.4093 12.2626 18.7374C12.5908 19.0656 13.0359 19.25 13.5 19.25C13.9642 19.25 14.4093 19.0656 14.7375 18.7374C15.0657 18.4093 15.25 17.9641 15.25 17.5Z" fill="black"/>
</svg>
