<svg width="17" height="19" viewBox="0 0 17 19" fill="none" xmlns="http://www.w3.org/2000/svg">
<path d="M5.20416 10.6666C4.55416 10.6666 3.98166 10.9974 3.64583 11.4999H8.75C9.30253 11.4999 9.83243 11.7194 10.2231 12.1101C10.6138 12.5008 10.8333 13.0307 10.8333 13.5833V16.9166C10.8333 17.0508 10.8208 17.1833 10.7958 17.3099C13.245 17.1549 15.0758 16.2683 16.2375 14.6374C16.5144 14.2492 16.6632 13.7843 16.6633 13.3074V12.5408C16.6633 12.0437 16.4659 11.567 16.1144 11.2155C15.7629 10.8641 15.2862 10.6666 14.7892 10.6666H5.20416ZM10 0.670776C9.45282 0.670776 8.91101 0.77855 8.40548 0.987945C7.89996 1.19734 7.44063 1.50425 7.05372 1.89116C6.66681 2.27808 6.35989 2.73741 6.1505 3.24293C5.9411 3.74845 5.83333 4.29027 5.83333 4.83744C5.83333 5.38462 5.9411 5.92643 6.1505 6.43196C6.35989 6.93748 6.66681 7.39681 7.05372 7.78372C7.44063 8.17063 7.89996 8.47755 8.40548 8.68694C8.91101 8.89634 9.45282 9.00411 10 9.00411C11.1051 9.00411 12.1649 8.56512 12.9463 7.78372C13.7277 7.00232 14.1667 5.94251 14.1667 4.83744C14.1667 3.73237 13.7277 2.67257 12.9463 1.89116C12.1649 1.10976 11.1051 0.670776 10 0.670776ZM10 13.5833C10 13.2518 9.8683 12.9338 9.63388 12.6994C9.39946 12.465 9.08152 12.3333 8.75 12.3333H2.08333C1.75181 12.3333 1.43387 12.465 1.19945 12.6994C0.965026 12.9338 0.833329 13.2518 0.833329 13.5833V16.9166C0.833329 17.2481 0.965026 17.5661 1.19945 17.8005C1.43387 18.0349 1.75181 18.1666 2.08333 18.1666H8.75C9.08152 18.1666 9.39946 18.0349 9.63388 17.8005C9.8683 17.5661 10 17.2481 10 16.9166V13.5833ZM1.66666 13.9999C1.88768 13.9999 2.09964 13.9121 2.25592 13.7559C2.4122 13.5996 2.5 13.3876 2.5 13.1666H3.33333C3.33333 13.6086 3.15773 14.0326 2.84517 14.3451C2.53261 14.6577 2.10869 14.8333 1.66666 14.8333V13.9999ZM1.66666 15.6666C2.10869 15.6666 2.53261 15.8422 2.84517 16.1548C3.15773 16.4673 3.33333 16.8912 3.33333 17.3333H2.5C2.5 17.1123 2.4122 16.9003 2.25592 16.744C2.09964 16.5877 1.88768 16.4999 1.66666 16.4999V15.6666ZM8.33333 13.1666C8.33333 13.3876 8.42113 13.5996 8.57741 13.7559C8.73369 13.9121 8.94565 13.9999 9.16666 13.9999V14.8333C8.72464 14.8333 8.30071 14.6577 7.98815 14.3451C7.67559 14.0326 7.5 13.6086 7.5 13.1666H8.33333ZM7.5 17.3333C7.5 16.8912 7.67559 16.4673 7.98815 16.1548C8.30071 15.8422 8.72464 15.6666 9.16666 15.6666V16.4999C8.94565 16.4999 8.73369 16.5877 8.57741 16.744C8.42113 16.9003 8.33333 17.1123 8.33333 17.3333H7.5ZM3.95833 15.2499C3.95833 14.8632 4.11198 14.4922 4.38547 14.2187C4.65896 13.9453 5.02989 13.7916 5.41666 13.7916C5.80344 13.7916 6.17437 13.9453 6.44786 14.2187C6.72135 14.4922 6.875 14.8632 6.875 15.2499C6.875 15.6367 6.72135 16.0076 6.44786 16.2811C6.17437 16.5546 5.80344 16.7083 5.41666 16.7083C5.02989 16.7083 4.65896 16.5546 4.38547 16.2811C4.11198 16.0076 3.95833 15.6367 3.95833 15.2499Z" fill="#403BD7"/>
</svg>
