<svg width="16" height="16" viewBox="0 0 16 16" fill="none" xmlns="http://www.w3.org/2000/svg">
<path d="M8.00005 8C8.99461 8 9.94844 7.60491 10.6517 6.90165C11.355 6.19839 11.75 5.24456 11.75 4.25C11.75 3.25544 11.355 2.30161 10.6517 1.59835C9.94844 0.895088 8.99461 0.5 8.00005 0.5C7.00548 0.5 6.05166 0.895088 5.3484 1.59835C4.64513 2.30161 4.25005 3.25544 4.25005 4.25C4.25005 5.24456 4.64513 6.19839 5.3484 6.90165C6.05166 7.60491 7.00548 8 8.00005 8ZM13.9188 15.5C14.6913 15.5 15.285 14.7988 15.0088 14.0763C14.4669 12.6563 13.5065 11.4345 12.2549 10.5725C11.0032 9.71042 9.51922 9.24885 7.99942 9.24885C6.47962 9.24885 4.99565 9.71042 3.74398 10.5725C2.49231 11.4345 1.53195 12.6563 0.990046 14.0763C0.715046 14.7988 1.30755 15.5 2.08005 15.5H13.9188Z" fill="black"/>
</svg>
