<svg width="16" height="18" viewBox="0 0 16 18" fill="none" xmlns="http://www.w3.org/2000/svg">
<path fill-rule="evenodd" clip-rule="evenodd" d="M7.23161 0.875C6.46745 0.875 5.81578 1.4275 5.68995 2.18083L5.54161 3.07417C5.52495 3.17417 5.44578 3.29083 5.29411 3.36417C5.00857 3.50143 4.73389 3.66022 4.47245 3.83917C4.33411 3.935 4.19411 3.94417 4.09745 3.90833L3.24995 3.59C2.90348 3.4602 2.52219 3.45755 2.17396 3.58253C1.82572 3.70751 1.53314 3.95201 1.34828 4.2725L0.579945 5.60333C0.39502 5.92363 0.329708 6.29915 0.395627 6.66307C0.461546 7.027 0.654422 7.35575 0.939946 7.59083L1.63995 8.1675C1.71911 8.2325 1.78161 8.35833 1.76828 8.52583C1.74453 8.84178 1.74453 9.15906 1.76828 9.475C1.78078 9.64167 1.71911 9.76833 1.64078 9.83333L0.939946 10.41C0.654422 10.6451 0.461546 10.9738 0.395627 11.3378C0.329708 11.7017 0.39502 12.0772 0.579945 12.3975L1.34828 13.7283C1.53327 14.0487 1.82591 14.293 2.17413 14.4178C2.52236 14.5426 2.90357 14.5399 3.24995 14.41L4.09911 14.0917C4.19495 14.0558 4.33495 14.0658 4.47411 14.16C4.73411 14.3383 5.00828 14.4975 5.29495 14.635C5.44661 14.7083 5.52578 14.825 5.54245 14.9267L5.69078 15.8192C5.75171 16.184 5.94005 16.5155 6.22233 16.7546C6.5046 16.9937 6.86252 17.1249 7.23245 17.125H8.76911C9.53245 17.125 10.1849 16.5725 10.3108 15.8192L10.4591 14.9258C10.4758 14.8258 10.5541 14.7092 10.7066 14.635C10.9933 14.4975 11.2674 14.3383 11.5274 14.16C11.6666 14.065 11.8066 14.0558 11.9024 14.0917L12.7524 14.41C13.0987 14.5394 13.4796 14.5418 13.8275 14.4168C14.1753 14.2919 14.4676 14.0476 14.6524 13.7275L15.4216 12.3967C15.6065 12.0764 15.6718 11.7009 15.6059 11.3369C15.54 10.973 15.3471 10.6443 15.0616 10.4092L14.3616 9.8325C14.2824 9.7675 14.2199 9.64167 14.2333 9.47417C14.257 9.15822 14.257 8.84095 14.2333 8.525C14.2199 8.35833 14.2824 8.23167 14.3608 8.16667L15.0608 7.59C15.6508 7.105 15.8033 6.265 15.4216 5.6025L14.6533 4.27167C14.4683 3.95132 14.1756 3.707 13.8274 3.58218C13.4792 3.45735 13.098 3.46013 12.7516 3.59L11.9016 3.90833C11.8066 3.94417 11.6666 3.93417 11.5274 3.83917C11.2663 3.66025 10.9919 3.50145 10.7066 3.36417C10.5541 3.29167 10.4758 3.175 10.4591 3.07417L10.3099 2.18083C10.2492 1.81589 10.0609 1.48435 9.77856 1.24522C9.49625 1.0061 9.13825 0.874907 8.76828 0.875H7.23161ZM7.99994 12.125C8.82875 12.125 9.6236 11.7958 10.2097 11.2097C10.7957 10.6237 11.1249 9.8288 11.1249 9C11.1249 8.1712 10.7957 7.37634 10.2097 6.79029C9.6236 6.20424 8.82875 5.875 7.99994 5.875C7.17114 5.875 6.37629 6.20424 5.79024 6.79029C5.20419 7.37634 4.87495 8.1712 4.87495 9C4.87495 9.8288 5.20419 10.6237 5.79024 11.2097C6.37629 11.7958 7.17114 12.125 7.99994 12.125Z" fill="black"/>
</svg>
