<svg width="18" height="19" viewBox="0 0 18 19" fill="none" xmlns="http://www.w3.org/2000/svg">
<path fill-rule="evenodd" clip-rule="evenodd" d="M17.67 13.205C17.8807 13.4159 17.999 13.7019 17.999 14C17.999 14.2981 17.8807 14.584 17.67 14.795L14.295 18.17C14.084 18.3807 13.7981 18.499 13.5 18.499C13.2019 18.499 12.9159 18.3807 12.705 18.17L9.32999 14.795C9.21946 14.692 9.1308 14.5678 9.06931 14.4298C9.00783 14.2918 8.97476 14.1428 8.9721 13.9918C8.96943 13.8407 8.99722 13.6907 9.0538 13.5506C9.11038 13.4105 9.1946 13.2833 9.30143 13.1764C9.40826 13.0696 9.53551 12.9854 9.67559 12.9288C9.81567 12.8722 9.96572 12.8444 10.1168 12.8471C10.2678 12.8498 10.4168 12.8828 10.5548 12.9443C10.6928 13.0058 10.817 13.0945 10.92 13.205L12.375 14.66V6.12499C12.375 5.82662 12.4935 5.54047 12.7045 5.32949C12.9155 5.11851 13.2016 4.99999 13.5 4.99999C13.7984 4.99999 14.0845 5.11851 14.2955 5.32949C14.5065 5.54047 14.625 5.82662 14.625 6.12499V14.66L16.08 13.205C16.2909 12.9943 16.5769 12.876 16.875 12.876C17.1731 12.876 17.459 12.9943 17.67 13.205ZM0.329987 5.79499C0.119311 5.58405 0.000976562 5.29811 0.000976562 4.99999C0.000976562 4.70186 0.119311 4.41592 0.329987 4.20499L3.70499 0.829987C3.91592 0.619311 4.20186 0.500977 4.49999 0.500977C4.79811 0.500977 5.08405 0.619311 5.29499 0.829987L8.66999 4.20499C8.86871 4.41825 8.97689 4.70032 8.97175 4.99177C8.96661 5.28322 8.84854 5.5613 8.64242 5.76742C8.4363 5.97354 8.15822 6.09161 7.86677 6.09675C7.57532 6.10189 7.29325 5.99371 7.07999 5.79499L5.62499 4.33999V12.875C5.62499 13.1734 5.50646 13.4595 5.29548 13.6705C5.0845 13.8815 4.79836 14 4.49999 14C4.20162 14 3.91547 13.8815 3.70449 13.6705C3.49351 13.4595 3.37499 13.1734 3.37499 12.875V4.33999L1.91999 5.79499C1.70905 6.00566 1.42311 6.124 1.12499 6.124C0.826861 6.124 0.540925 6.00566 0.329987 5.79499Z" fill="#707070"/>
</svg>
